<svg width="164" height="119" viewBox="0 0 164 119" fill="none" xmlns="http://www.w3.org/2000/svg">
<path d="M3.83523 67.7727V58.0852L28.125 19.8182H36.4773V33.2273H31.5341L16.2216 57.4602V57.9148H50.7386V67.7727H3.83523ZM31.7614 78V64.8182L31.9886 60.5284V19.8182H43.5227V78H31.7614ZM81.7472 79.2784C76.8608 79.2595 72.6563 78.0568 69.1335 75.6705C65.6297 73.2841 62.9309 69.8277 61.0369 65.3011C59.1619 60.7746 58.2339 55.3295 58.2528 48.9659C58.2528 42.6212 59.1903 37.214 61.0653 32.7443C62.9593 28.2746 65.6581 24.875 69.1619 22.5455C72.6847 20.197 76.8797 19.0227 81.7472 19.0227C86.6146 19.0227 90.8002 20.197 94.304 22.5455C97.8267 24.8939 100.535 28.303 102.429 32.7727C104.323 37.2235 105.26 42.6212 105.241 48.9659C105.241 55.3485 104.295 60.803 102.401 65.3295C100.526 69.8561 97.8362 73.3125 94.3324 75.6989C90.8286 78.0852 86.6335 79.2784 81.7472 79.2784ZM81.7472 69.0795C85.0805 69.0795 87.7415 67.4034 89.7301 64.0511C91.7188 60.6989 92.7036 55.6705 92.6847 48.9659C92.6847 44.553 92.2301 40.8788 91.321 37.9432C90.4309 35.0076 89.1619 32.8011 87.5142 31.3239C85.8854 29.8466 83.9631 29.108 81.7472 29.108C78.4328 29.108 75.7813 30.7652 73.7926 34.0795C71.804 37.3939 70.8002 42.3561 70.7812 48.9659C70.7812 53.4356 71.2263 57.1667 72.1165 60.1591C73.0256 63.1326 74.304 65.3674 75.9517 66.8636C77.5994 68.3409 79.5312 69.0795 81.7472 69.0795ZM113.132 67.7727V58.0852L137.422 19.8182H145.774V33.2273H140.831L125.518 57.4602V57.9148H160.036V67.7727H113.132ZM141.058 78V64.8182L141.286 60.5284V19.8182H152.82V78H141.058Z" fill="#E9E9E9"/>
<g filter="url(#filter0_d_79_1738)">
<rect x="46" y="39" width="72" height="72" rx="12" fill="#E6D8FD" shape-rendering="crispEdges"/>
<mask id="mask0_79_1738" style="mask-type:alpha" maskUnits="userSpaceOnUse" x="58" y="51" width="48" height="48">
<rect x="58" y="51" width="48" height="48" fill="#D9D9D9"/>
</mask>
<g mask="url(#mask0_79_1738)">
<path d="M64.925 92.075C62.975 90.125 62 87.7667 62 85C62 82.2333 62.975 79.875 64.925 77.925C66.875 75.975 69.2333 75 72 75C74.7667 75 77.125 75.975 79.075 77.925C81.025 79.875 82 82.2333 82 85C82 87.7667 81.025 90.125 79.075 92.075C77.125 94.025 74.7667 95 72 95C69.2333 95 66.875 94.025 64.925 92.075ZM99.2 93L86.4 80.2C86 79.7667 85.575 79.325 85.125 78.875C84.675 78.425 84.2333 78 83.8 77.6C85.0667 76.8 86.0833 75.7333 86.85 74.4C87.6167 73.0667 88 71.6 88 70C88 67.5 87.125 65.375 85.375 63.625C83.625 61.875 81.5 61 79 61C76.5 61 74.375 61.875 72.625 63.625C70.875 65.375 70 67.5 70 70C70 70.2 70.0083 70.3917 70.025 70.575C70.0417 70.7583 70.0667 70.95 70.1 71.15C69.5 71.2167 68.8417 71.35 68.125 71.55C67.4083 71.75 66.7667 71.9833 66.2 72.25C66.1333 71.8833 66.0833 71.5167 66.05 71.15C66.0167 70.7833 66 70.4 66 70C66 66.3667 67.2583 63.2917 69.775 60.775C72.2917 58.2583 75.3667 57 79 57C82.6333 57 85.7083 58.2583 88.225 60.775C90.7417 63.2917 92 66.3667 92 70C92 71.4333 91.775 72.7917 91.325 74.075C90.875 75.3583 90.25 76.5333 89.45 77.6L102 90.2L99.2 93ZM68.45 89.95L72 86.4L75.5 89.95L76.95 88.55L73.4 85L76.95 81.45L75.55 80.05L72 83.6L68.45 80.05L67.05 81.45L70.6 85L67.05 88.55L68.45 89.95Z" fill="#6712F2"/>
</g>
</g>
<defs>
<filter id="filter0_d_79_1738" x="38" y="31" width="88" height="88" filterUnits="userSpaceOnUse" color-interpolation-filters="sRGB">
<feFlood flood-opacity="0" result="BackgroundImageFix"/>
<feColorMatrix in="SourceAlpha" type="matrix" values="0 0 0 0 0 0 0 0 0 0 0 0 0 0 0 0 0 0 127 0" result="hardAlpha"/>
<feOffset/>
<feGaussianBlur stdDeviation="4"/>
<feComposite in2="hardAlpha" operator="out"/>
<feColorMatrix type="matrix" values="0 0 0 0 0 0 0 0 0 0 0 0 0 0 0 0 0 0 0.12 0"/>
<feBlend mode="normal" in2="BackgroundImageFix" result="effect1_dropShadow_79_1738"/>
<feBlend mode="normal" in="SourceGraphic" in2="effect1_dropShadow_79_1738" result="shape"/>
</filter>
</defs>
</svg>
