<svg width="1320" height="240" viewBox="0 0 1320 240" fill="none" xmlns="http://www.w3.org/2000/svg">
<g clip-path="url(#clip0_42_2444)">
<rect width="1320" height="240" fill="url(#paint0_linear_42_2444)"/>
<g opacity="0.1">
<mask id="mask0_42_2444" style="mask-type:alpha" maskUnits="userSpaceOnUse" x="958" y="-40" width="373" height="373">
<rect x="958" y="-40" width="372.96" height="372.96" fill="#D9D9D9"/>
</mask>
<g mask="url(#mask0_42_2444)">
<path d="M958 239.72V215.245C958 204.108 963.698 195.043 975.094 188.05C986.49 181.057 1001.51 177.56 1020.16 177.56C1023.53 177.56 1026.76 177.625 1029.87 177.754C1032.98 177.884 1035.96 178.207 1038.81 178.725C1035.18 184.164 1032.46 189.863 1030.65 195.82C1028.84 201.777 1027.93 207.992 1027.93 214.467V239.72H958ZM1051.24 239.72V214.467C1051.24 206.179 1053.51 198.604 1058.04 191.74C1062.57 184.877 1068.98 178.855 1077.27 173.675C1085.56 168.495 1095.46 164.61 1106.99 162.02C1118.52 159.43 1131.01 158.135 1144.48 158.135C1158.21 158.135 1170.83 159.43 1182.36 162.02C1193.88 164.61 1203.79 168.495 1212.08 173.675C1220.37 178.855 1226.71 184.877 1231.12 191.74C1235.52 198.604 1237.72 206.179 1237.72 214.467V239.72H1051.24ZM1261.03 239.72V214.467C1261.03 207.733 1260.19 201.388 1258.5 195.431C1256.82 189.474 1254.3 183.905 1250.93 178.725C1253.78 178.207 1256.69 177.884 1259.67 177.754C1262.65 177.625 1265.69 177.56 1268.8 177.56C1287.45 177.56 1302.47 180.992 1313.87 187.855C1325.26 194.719 1330.96 203.849 1330.96 215.245V239.72H1261.03ZM1084.26 208.64H1205.09C1202.5 203.46 1195.31 198.927 1183.52 195.042C1171.74 191.157 1158.73 189.215 1144.48 189.215C1130.24 189.215 1117.22 191.157 1105.44 195.042C1093.65 198.927 1086.59 203.46 1084.26 208.64ZM1020.16 162.02C1011.61 162.02 1004.3 158.977 998.21 152.89C992.123 146.804 989.08 139.487 989.08 130.94C989.08 122.134 992.123 114.752 998.21 108.795C1004.3 102.838 1011.61 99.86 1020.16 99.86C1028.97 99.86 1036.35 102.838 1042.3 108.795C1048.26 114.752 1051.24 122.134 1051.24 130.94C1051.24 139.487 1048.26 146.804 1042.3 152.89C1036.35 158.977 1028.97 162.02 1020.16 162.02ZM1268.8 162.02C1260.25 162.02 1252.94 158.977 1246.85 152.89C1240.76 146.804 1237.72 139.487 1237.72 130.94C1237.72 122.134 1240.76 114.752 1246.85 108.795C1252.94 102.838 1260.25 99.86 1268.8 99.86C1277.61 99.86 1284.99 102.838 1290.94 108.795C1296.9 114.752 1299.88 122.134 1299.88 130.94C1299.88 139.487 1296.9 146.804 1290.94 152.89C1284.99 158.977 1277.61 162.02 1268.8 162.02ZM1144.48 146.48C1131.53 146.48 1120.52 141.947 1111.46 132.882C1102.39 123.817 1097.86 112.81 1097.86 99.86C1097.86 86.651 1102.39 75.5787 1111.46 66.6432C1120.52 57.7077 1131.53 53.24 1144.48 53.24C1157.69 53.24 1168.76 57.7077 1177.7 66.6432C1186.63 75.5787 1191.1 86.651 1191.1 99.86C1191.1 112.81 1186.63 123.817 1177.7 132.882C1168.76 141.947 1157.69 146.48 1144.48 146.48ZM1144.48 115.4C1148.88 115.4 1152.57 113.911 1155.55 110.932C1158.53 107.954 1160.02 104.263 1160.02 99.86C1160.02 95.457 1158.53 91.7662 1155.55 88.7877C1152.57 85.8092 1148.88 84.32 1144.48 84.32C1140.08 84.32 1136.39 85.8092 1133.41 88.7877C1130.43 91.7662 1128.94 95.457 1128.94 99.86C1128.94 104.263 1130.43 107.954 1133.41 110.932C1136.39 113.911 1140.08 115.4 1144.48 115.4Z" fill="white"/>
</g>
</g>
</g>
<defs>
<linearGradient id="paint0_linear_42_2444" x1="0" y1="120" x2="1320" y2="120" gradientUnits="userSpaceOnUse">
<stop stop-color="#6712F2"/>
<stop offset="1" stop-color="#8642F5"/>
</linearGradient>
<clipPath id="clip0_42_2444">
<rect width="1320" height="240" fill="white"/>
</clipPath>
</defs>
</svg>
