<svg width="329" height="329" viewBox="0 0 329 329" fill="none" xmlns="http://www.w3.org/2000/svg">
<g opacity="0.1">
<mask id="mask0_49_1736" style="mask-type:alpha" maskUnits="userSpaceOnUse" x="0" y="0" width="329" height="329">
<rect width="328.205" height="328.205" fill="#D9D9D9"/>
</mask>
<g mask="url(#mask0_49_1736)">
<path d="M0 246.154V224.615C0 214.815 5.01424 206.837 15.0427 200.684C25.0712 194.53 38.2906 191.453 54.7008 191.453C57.6638 191.453 60.5128 191.51 63.2478 191.624C65.9828 191.738 68.6039 192.023 71.111 192.478C67.9202 197.265 65.527 202.279 63.9316 207.521C62.3361 212.763 61.5384 218.233 61.5384 223.931V246.154H0ZM82.0512 246.154V223.931C82.0512 216.638 84.0455 209.971 88.0341 203.931C92.0227 197.891 97.6637 192.592 104.957 188.034C112.251 183.476 120.969 180.057 131.111 177.778C141.253 175.498 152.251 174.359 164.102 174.359C176.182 174.359 187.293 175.498 197.436 177.778C207.578 180.057 216.296 183.476 223.59 188.034C230.883 192.592 236.467 197.891 240.342 203.931C244.216 209.971 246.154 216.638 246.154 223.931V246.154H82.0512ZM266.666 246.154V223.931C266.666 218.005 265.926 212.421 264.444 207.179C262.963 201.937 260.74 197.037 257.778 192.478C260.285 192.023 262.849 191.738 265.47 191.624C268.091 191.51 270.769 191.453 273.504 191.453C289.914 191.453 303.134 194.473 313.162 200.513C323.191 206.552 328.205 214.587 328.205 224.615V246.154H266.666ZM111.111 218.803H217.436C215.156 214.245 208.832 210.256 198.461 206.837C188.091 203.419 176.638 201.709 164.102 201.709C151.567 201.709 140.114 203.419 129.743 206.837C119.373 210.256 113.162 214.245 111.111 218.803ZM54.7008 177.778C47.1794 177.778 40.7407 175.099 35.3846 169.743C30.0285 164.387 27.3504 157.949 27.3504 150.427C27.3504 142.678 30.0285 136.182 35.3846 130.94C40.7407 125.698 47.1794 123.077 54.7008 123.077C62.4501 123.077 68.9458 125.698 74.188 130.94C79.4301 136.182 82.0512 142.678 82.0512 150.427C82.0512 157.949 79.4301 164.387 74.188 169.743C68.9458 175.099 62.4501 177.778 54.7008 177.778ZM273.504 177.778C265.983 177.778 259.544 175.099 254.188 169.743C248.832 164.387 246.154 157.949 246.154 150.427C246.154 142.678 248.832 136.182 254.188 130.94C259.544 125.698 265.983 123.077 273.504 123.077C281.253 123.077 287.749 125.698 292.991 130.94C298.233 136.182 300.854 142.678 300.854 150.427C300.854 157.949 298.233 164.387 292.991 169.743C287.749 175.099 281.253 177.778 273.504 177.778ZM164.102 164.102C152.706 164.102 143.02 160.114 135.043 152.137C127.065 144.159 123.077 134.473 123.077 123.077C123.077 111.453 127.065 101.709 135.043 93.846C143.02 85.9828 152.706 82.0511 164.102 82.0511C175.726 82.0511 185.47 85.9828 193.333 93.846C201.196 101.709 205.128 111.453 205.128 123.077C205.128 134.473 201.196 144.159 193.333 152.137C185.47 160.114 175.726 164.102 164.102 164.102ZM164.102 136.752C167.977 136.752 171.225 135.441 173.846 132.82C176.467 130.199 177.778 126.951 177.778 123.077C177.778 119.202 176.467 115.954 173.846 113.333C171.225 110.712 167.977 109.402 164.102 109.402C160.228 109.402 156.98 110.712 154.359 113.333C151.738 115.954 150.427 119.202 150.427 123.077C150.427 126.951 151.738 130.199 154.359 132.82C156.98 135.441 160.228 136.752 164.102 136.752Z" fill="white"/>
</g>
</g>
</svg>
